# xmcd
#
# Track frame offsets: 
#        150
#        11828
#        22895
#        32123
#        42721
#        53051
#        62361
#        69899
#        84377
#        97950
#        106714
#        117309
#        126596
#        135676
#        144353
#        155054
#        166621
#        187120
#        195963
#        206842
#
# Disc length: 3050 seconds
#
# Revision: 0
# Processed by: cddbd v1.5.2PL0 Copyright (c) Steve Scherf et al.
# Submitted via: ExactAudioCopyFreeDBPlugin 1.0
#
DISCID=0e0be814
DTITLE=Fats Domino - 2003 - Rockin' On Rampart [CD2]
DYEAR=2003
DGENRE=R&B
TTITLE0=Please Don't Leave Me
TTITLE1=Ain't That A Shame
TTITLE2=I'm In Love Again
TTITLE3=Blueberry Hill
TTITLE4=Blue Monday
TTITLE5=I'm Walkin'
TTITLE6=Whole Lotta Lovin'
TTITLE7=I'm In The Mood For Love
TTITLE8=When The Saints Go Marching In
TTITLE9=I'm Ready
TTITLE10=I Want To Walk You Home
TTITLE11=I'm Gonna Be A Wheel Someday
TTITLE12=Be My Guest
TTITLE13=My Girl Josephine
TTITLE14=What A Price
TTITLE15=Let The Four Winds Blow
TTITLE16=Jambalaya
TTITLE17=Red Sails In The Sunset
TTITLE18=There Goes My Heart Again
TTITLE19=Domino Twist
EXTD=
EXTT0=
EXTT1=
EXTT2=
EXTT3=
EXTT4=
EXTT5=
EXTT6=
EXTT7=
EXTT8=
EXTT9=
EXTT10=
EXTT11=
EXTT12=
EXTT13=
EXTT14=
EXTT15=
EXTT16=
EXTT17=
EXTT18=
EXTT19=
PLAYORDER=
